# xmcd
#
# Track frame offsets:
# 150
# 25230
# 42717
# 55337
# 70112
# 81912
# 101987
# 119437
# 138005
# 156055
# 167992
# 179542
# 191495
# 208247
# 224475
# 237042
# 251622
# 269892
# 284155
# 301640
# 313157
#
# Disc length: 4361 seconds
#
#
# Revision: 0
# Processed by: cddbd v1.5.1PL0 Copyright (c) Steve Scherf et al.
# Submitted via: FreeRIP 2.941 
#
DISCID=4b110715
DTITLE=Marvin Gaye - A musical Testament 1964-1988
DYEAR=1988
DGENRE=Blues
TTITLE0=Right on
TTITLE1=After the dance
TTITLE2=Try it baby
TTITLE3=I heard it through the gravepine
TTITLE4=Loving and affection
TTITLE5=Just to keep you satisfied
TTITLE6=When did you stop loving me, When did I stop loving you
TTITLE7=Distant lover
TTITLE8=Anger
TTITLE9=Baby don't you do it
TTITLE10=Little darling, I need you
TTITLE11=Lonely lover
TTITLE12=That's the way love is
TTITLE13=Dark side of the world
TTITLE14=The end of our road
TTITLE15=The star-spangled banner
TTITLE16=Save the children
TTITLE17=Wholy holy
TTITLE18=His eye is on the sparrow
TTITLE19=Life is a gamble
TTITLE20=If I should die tonight
EXTD=
EXTT0=
EXTT1=
EXTT2=
EXTT3=
EXTT4=
EXTT5=
EXTT6=
EXTT7=
EXTT8=
EXTT9=
EXTT10=
EXTT11=
EXTT12=
EXTT13=
EXTT14=
EXTT15=
EXTT16=
EXTT17=
EXTT18=
EXTT19=
EXTT20=
PLAYORDER=
